<svg width="122" height="160" viewBox="0 0 122 160" fill="none" xmlns="http://www.w3.org/2000/svg">
<rect y="134" width="67" height="24" fill="#0045ED"/>
<path d="M14.5612 138.586V141.594H10.4772V154H6.72251V141.594H2.63848V138.586H14.5612ZM15.699 147.852C15.699 146.593 15.9332 145.488 16.4017 144.536C16.8847 143.585 17.5361 142.853 18.3558 142.341C19.1756 141.828 20.0904 141.572 21.1005 141.572C21.9641 141.572 22.718 141.748 23.3621 142.099C24.0208 142.451 24.5258 142.912 24.8771 143.483V141.748H28.6318V154H24.8771V152.265C24.5111 152.836 23.9988 153.297 23.3401 153.649C22.696 154 21.9422 154.176 21.0785 154.176C20.0831 154.176 19.1756 153.919 18.3558 153.407C17.5361 152.88 16.8847 152.141 16.4017 151.189C15.9332 150.223 15.699 149.111 15.699 147.852ZM24.8771 147.874C24.8771 146.937 24.6136 146.198 24.0866 145.656C23.5743 145.115 22.9449 144.844 22.1983 144.844C21.4518 144.844 20.815 145.115 20.2881 145.656C19.7757 146.183 19.5196 146.915 19.5196 147.852C19.5196 148.789 19.7757 149.535 20.2881 150.092C20.815 150.633 21.4518 150.904 22.1983 150.904C22.9449 150.904 23.5743 150.633 24.0866 150.092C24.6136 149.55 24.8771 148.811 24.8771 147.874ZM38.8135 141.616C40.2481 141.616 41.3898 142.085 42.2388 143.021C43.1025 143.944 43.5343 145.217 43.5343 146.842V154H39.8016V147.347C39.8016 146.527 39.5893 145.891 39.1648 145.437C38.7403 144.983 38.1695 144.756 37.4522 144.756C36.7349 144.756 36.164 144.983 35.7395 145.437C35.315 145.891 35.1028 146.527 35.1028 147.347V154H31.3481V141.748H35.1028V143.373C35.4834 142.831 35.9957 142.407 36.6398 142.099C37.2838 141.777 38.0084 141.616 38.8135 141.616ZM53.6308 154L49.8981 148.862V154H46.1434V137.752H49.8981V146.732L53.6089 141.748H58.2418L53.1478 147.896L58.2857 154H53.6308ZM61.6048 140.474C60.9461 140.474 60.4045 140.284 59.98 139.904C59.5702 139.508 59.3652 139.025 59.3652 138.454C59.3652 137.869 59.5702 137.386 59.98 137.005C60.4045 136.61 60.9461 136.412 61.6048 136.412C62.2489 136.412 62.7759 136.61 63.1858 137.005C63.6103 137.386 63.8225 137.869 63.8225 138.454C63.8225 139.025 63.6103 139.508 63.1858 139.904C62.7759 140.284 62.2489 140.474 61.6048 140.474ZM63.4712 141.748V154H59.7165V141.748H63.4712Z" fill="white"/>
<path d="M80.177 146.095C81.0699 146.286 81.7872 146.732 82.3288 147.435C82.8704 148.123 83.1412 148.913 83.1412 149.806C83.1412 151.094 82.6874 152.119 81.7798 152.88C80.8869 153.627 79.6354 154 78.0252 154H70.8452V138.586H77.7836C79.3499 138.586 80.5722 138.945 81.4505 139.662C82.3434 140.379 82.7899 141.353 82.7899 142.582C82.7899 143.49 82.5483 144.244 82.0653 144.844C81.5969 145.444 80.9674 145.861 80.177 146.095ZM74.5999 144.822H77.0591C77.6739 144.822 78.1423 144.69 78.4643 144.427C78.801 144.149 78.9693 143.746 78.9693 143.219C78.9693 142.692 78.801 142.29 78.4643 142.011C78.1423 141.733 77.6739 141.594 77.0591 141.594H74.5999V144.822ZM77.3665 150.97C77.9959 150.97 78.4789 150.831 78.8156 150.553C79.1669 150.26 79.3426 149.843 79.3426 149.301C79.3426 148.76 79.1596 148.335 78.7937 148.028C78.4424 147.72 77.952 147.567 77.3225 147.567H74.5999V150.97H77.3665ZM92.8502 141.616C94.2554 141.616 95.3826 142.085 96.2316 143.021C97.0806 143.944 97.5051 145.217 97.5051 146.842V154H93.7724V147.347C93.7724 146.527 93.5601 145.891 93.1356 145.437C92.7111 144.983 92.1402 144.756 91.423 144.756C90.7057 144.756 90.1348 144.983 89.7103 145.437C89.2858 145.891 89.0735 146.527 89.0735 147.347V154H85.3189V137.752H89.0735V143.395C89.4541 142.853 89.9738 142.421 90.6325 142.099C91.2912 141.777 92.0304 141.616 92.8502 141.616ZM99.3677 147.852C99.3677 146.593 99.6019 145.488 100.07 144.536C100.553 143.585 101.205 142.853 102.024 142.341C102.844 141.828 103.759 141.572 104.769 141.572C105.633 141.572 106.387 141.748 107.031 142.099C107.689 142.451 108.194 142.912 108.546 143.483V141.748H112.3V154H108.546V152.265C108.18 152.836 107.667 153.297 107.009 153.649C106.365 154 105.611 154.176 104.747 154.176C103.752 154.176 102.844 153.919 102.024 153.407C101.205 152.88 100.553 152.141 100.07 151.189C99.6019 150.223 99.3677 149.111 99.3677 147.852ZM108.546 147.874C108.546 146.937 108.282 146.198 107.755 145.656C107.243 145.115 106.614 144.844 105.867 144.844C105.12 144.844 104.484 145.115 103.957 145.656C103.444 146.183 103.188 146.915 103.188 147.852C103.188 148.789 103.444 149.535 103.957 150.092C104.484 150.633 105.12 150.904 105.867 150.904C106.614 150.904 107.243 150.633 107.755 150.092C108.282 149.55 108.546 148.811 108.546 147.874ZM116.905 140.474C116.246 140.474 115.705 140.284 115.28 139.904C114.87 139.508 114.665 139.025 114.665 138.454C114.665 137.869 114.87 137.386 115.28 137.005C115.705 136.61 116.246 136.412 116.905 136.412C117.549 136.412 118.076 136.61 118.486 137.005C118.91 137.386 119.123 137.869 119.123 138.454C119.123 139.025 118.91 139.508 118.486 139.904C118.076 140.284 117.549 140.474 116.905 140.474ZM118.771 141.748V154H115.017V141.748H118.771Z" fill="#0045ED"/>
<mask id="mask0_27_157" style="mask-type:luminance" maskUnits="userSpaceOnUse" x="24" y="0" width="66" height="119">
<path d="M24 0H89.3469V119H24V0Z" fill="white"/>
</mask>
<g mask="url(#mask0_27_157)">
<path d="M81.742 112.894V58.4234H87.5725V9.86768C87.5725 8.72239 86.809 7.57926 85.6615 7.19749L71.61 2.52305C61.7644 -0.721956 51.153 -0.721956 41.3074 2.52305L27.2559 7.19749C26.1084 7.57926 25.3449 8.62694 25.3449 9.86768V58.3279H31.1755V112.799H24.0065V119H88.9109V112.799H81.742V112.894ZM78.8744 49.1699H34.1385V17.1169H78.8744V49.1699Z" fill="#0045ED"/>
</g>
<path d="M114.817 82.5588C112.999 79.316 108.793 69.4899 108.793 69.4899V56.6118H110.42V39.0593H114.146V31.5216L105.066 22.459L103.153 24.177L96.2707 17.3074L89.4857 15.7825V19.598L94.3597 20.3615L100.574 26.5609L96.2707 30.5672L97.8975 32.1897C96.6546 33.4304 93.1168 38.1049 92.9259 50.6012C92.9259 51.2693 93.5007 51.8419 94.1688 51.8419H104.685V56.8027H106.5V69.6808C106.5 69.6808 108.411 76.0731 110.036 79.0297C113.956 85.8016 116.25 94.4846 112.522 101.829C110.897 104.977 108.411 108.126 104.587 108.315C101.147 108.506 97.7067 106.504 95.8889 103.736C95.2208 102.688 94.2643 100.97 94.2643 99.6341C94.2643 99.6341 94.2643 90.0943 94.2643 82.3679C94.2643 77.0254 94.2643 72.5418 94.2643 72.5418H84.4186V82.3679H91.8739V99.825C92.2578 101.543 92.8305 103.261 93.6916 104.786C97.2273 111.369 106.787 112.61 111.949 107.267C114.817 104.404 116.25 100.302 116.632 96.3913C117.109 91.6214 117.014 86.5652 114.817 82.5588ZM104.876 49.6468H95.8889C95.8889 49.6468 95.7935 43.5429 97.3227 38.5821C102.294 43.1611 98.9474 47.7401 98.9474 47.7401L102.103 45.545C102.581 40.6796 99.7131 37.5322 98.1839 36.1961C98.6611 35.2417 99.1404 34.4803 99.8085 33.8122L104.78 38.773V49.6468H104.876Z" fill="#0045ED"/>
<mask id="mask1_27_157" style="mask-type:luminance" maskUnits="userSpaceOnUse" x="47" y="23" width="20" height="20">
<path d="M47 23H66.9446V43H47V23Z" fill="white"/>
</mask>
<g mask="url(#mask1_27_157)">
<path fill-rule="evenodd" clip-rule="evenodd" d="M56.9367 23C62.4675 23.0391 66.7843 27.4553 66.8626 32.8473C66.9409 38.4364 62.5164 42.9804 56.9758 43C51.4353 43.0199 47.0398 38.5447 47.0104 33.0542C46.9909 27.5343 51.3566 23.0294 56.9367 23Z" fill="#0045ED"/>
</g>
<path fill-rule="evenodd" clip-rule="evenodd" d="M66.375 33.0115C66.3646 38.2225 62.1432 42.3854 56.9848 42.375C51.8263 42.3649 47.605 38.1823 47.6251 32.9612C47.6452 27.9219 51.6348 23.749 56.753 23.6279C62.2039 23.4971 66.375 27.8612 66.375 33.0115Z" fill="#F6F8F9"/>
<path fill-rule="evenodd" clip-rule="evenodd" d="M56.8715 24.251C61.5083 24.183 65.3967 27.7312 65.7273 32.3681C66.0772 37.3065 62.3441 41.4188 57.6005 41.7297C52.6622 42.0603 48.5601 38.3177 48.2683 33.5543C47.9474 28.5088 51.8943 24.3289 56.8715 24.251Z" fill="#0045ED"/>
<path fill-rule="evenodd" clip-rule="evenodd" d="M54.331 35.4412C54.331 34.8375 54.331 34.2238 54.331 33.6198C54.331 33.493 54.2911 33.4637 54.1701 33.4735C53.8983 33.4832 53.6262 33.4735 53.3645 33.4832C53.2334 33.4832 53.1528 33.4442 53.0721 33.3568C52.7399 32.9768 52.3975 32.5967 52.0652 32.2171C52.0249 32.1683 51.9745 32.1293 52.0148 32.061C52.0451 32.0025 52.1055 31.9931 52.166 31.9931C52.8104 31.983 53.4548 31.983 54.0996 31.9736C54.331 31.9736 54.331 31.9736 54.331 31.759C54.331 30.9798 54.3213 30.1908 54.331 29.4116C54.331 29.0901 54.0996 28.8463 53.7068 28.8564C53.5459 28.8564 53.3947 28.9146 53.2536 28.9926C53.0923 29.0804 53.0822 29.0706 52.9717 28.9341C52.7802 28.6808 52.589 28.4276 52.3975 28.1744C52.3773 28.1451 52.3572 28.1158 52.337 28.0866C52.2665 27.9894 52.2765 27.9211 52.3773 27.8431C52.6895 27.6191 53.0423 27.4732 53.4249 27.4147C54.0088 27.3171 54.5528 27.3952 55.0564 27.6972C55.298 27.8431 55.4794 28.0284 55.6101 28.2719C55.681 28.4081 55.7214 28.5446 55.7214 28.7003C55.7214 29.7526 55.7214 30.8046 55.7214 31.8565C55.7214 31.9443 55.7415 31.983 55.8319 31.9638C56.1641 31.8956 56.3758 32.0321 56.5774 32.2756C56.8593 32.6065 57.1815 32.9182 57.4835 33.23C57.5239 33.2788 57.5843 33.3178 57.544 33.3857C57.5037 33.454 57.4432 33.4637 57.373 33.4637C56.8593 33.4637 56.3456 33.4735 55.8218 33.4735C55.7415 33.4735 55.7109 33.493 55.7109 33.571C55.7109 34.779 55.7109 35.9964 55.7109 37.2044C55.7109 37.263 55.7214 37.3114 55.7512 37.3601C55.9629 37.7499 56.3053 37.9352 56.7484 37.9544C57.2722 37.9739 57.7255 37.7889 58.1485 37.5162C59.065 36.9219 59.6892 36.1135 59.9513 35.0709C60.0118 34.818 60.0118 34.818 59.7497 34.779C59.488 34.74 59.2259 34.6815 58.9945 34.5551C58.4505 34.282 58.1989 33.834 58.1384 33.269C58.0477 32.3435 58.7327 31.5936 59.6792 31.5155C60.7066 31.4375 61.7139 32.1488 61.9252 33.1812C62.026 33.6682 61.9957 34.1458 61.9957 34.6327C61.9957 36.2302 60.4146 38.4027 58.3497 39.0453C57.4936 39.3083 56.6476 39.3473 55.8016 38.9872C55.0766 38.6754 54.6133 38.1299 54.3415 37.4187C54.3213 37.3796 54.331 37.3309 54.331 37.2825C54.331 36.659 54.331 36.0549 54.331 35.4412Z" fill="#FEFEFE"/>
</svg>
