<svg width="17" height="20" viewBox="0 0 17 20" fill="none" xmlns="http://www.w3.org/2000/svg">
<path fill-rule="evenodd" clip-rule="evenodd" d="M3.77406 13.5852C3.77406 12.5685 3.77406 11.5348 3.77406 10.5175C3.77406 10.304 3.70938 10.2547 3.51354 10.2711C3.07349 10.2876 2.63284 10.2711 2.20912 10.2876C1.99695 10.2876 1.86639 10.2218 1.73583 10.0746C1.19786 9.43456 0.64357 8.7945 0.105602 8.15506C0.0403205 8.07292 -0.0412814 8.00721 0.0240001 7.89222C0.0729612 7.79366 0.170883 7.77784 0.268806 7.77784C1.3121 7.76081 2.3554 7.76081 3.3993 7.74499C3.77406 7.74499 3.77406 7.74499 3.77406 7.38359C3.77406 6.07124 3.75834 4.74246 3.77406 3.43011C3.77406 2.88862 3.3993 2.47794 2.76341 2.49498C2.50288 2.49498 2.25808 2.59293 2.02959 2.72435C1.76847 2.87219 1.75215 2.85577 1.57323 2.62579C1.26314 2.19929 0.953657 1.77279 0.64357 1.34629C0.610929 1.29701 0.578289 1.24773 0.545648 1.19844C0.431405 1.03478 0.447726 0.91979 0.610929 0.788373C1.11626 0.411156 1.68747 0.165356 2.30704 0.0667926C3.25241 -0.0974795 4.13311 0.0339381 4.94852 0.542573C5.33961 0.788372 5.63337 1.10049 5.84493 1.51056C5.95978 1.73993 6.02506 1.96991 6.02506 2.23214C6.02506 4.00445 6.02506 5.77616 6.02506 7.54786C6.02506 7.69571 6.0577 7.76081 6.20398 7.72856C6.74195 7.61357 7.08468 7.84355 7.41109 8.25362C7.86745 8.81093 8.3891 9.33599 8.87811 9.86105C8.94339 9.94319 9.04131 10.0089 8.97603 10.1233C8.91075 10.2383 8.81283 10.2547 8.69919 10.2547C7.86745 10.2547 7.03572 10.2711 6.18766 10.2711C6.0577 10.2711 6.00814 10.304 6.00814 10.4354C6.00814 12.4699 6.00814 14.5203 6.00814 16.5548C6.00814 16.6534 6.02506 16.7349 6.07342 16.8171C6.41615 17.4735 6.97044 17.7857 7.68793 17.8179C8.53598 17.8508 9.2698 17.5392 9.95465 17.0799C11.4386 16.0791 12.4492 14.7174 12.8736 12.9615C12.9715 12.5356 12.9715 12.5356 12.5472 12.4699C12.1234 12.4042 11.6991 12.3057 11.3243 12.0927C10.4437 11.6328 10.0362 10.8783 9.93833 9.92676C9.79144 8.368 10.9006 7.10494 12.4329 6.97352C14.0964 6.8421 15.7272 8.04007 16.0693 9.77892C16.2326 10.5991 16.1836 11.4034 16.1836 12.2235C16.1836 14.9139 13.6237 18.5729 10.2804 19.6553C8.89443 20.0982 7.52472 20.1639 6.15502 19.5574C4.98116 19.0323 4.23103 18.1136 3.79098 16.9156C3.75834 16.8499 3.77406 16.7678 3.77406 16.6863C3.77406 15.6361 3.77406 14.6189 3.77406 13.5852Z" fill="black"/>
</svg>
